<svg width="60" height="40" viewBox="0 0 60 40" fill="none" xmlns="http://www.w3.org/2000/svg"><g clip-path="url(#a)"><path fill="#fff" d="M0 0h60v40H0z"/><path fill="#5C8AB3" d="M0 0h60v40H0z"/><path fill="#5C8AB3" stroke="#6994BA" d="M6.5 6.5h7v7h-7zM27.525 5.713l6.762 1.812-1.812 6.76-6.762-1.81zM48.72 5.22l6.06 3.5-3.5 6.06-6.06-3.5zM10 25.05L14.95 30 10 34.95 5.05 30zM31.28 25.22l3.5 6.06-6.06 3.5-3.5-6.06zM52.475 25.713l1.812 6.762-6.76 1.812-1.813-6.762z"/></g><defs><clipPath id="a"><path fill="#fff" d="M0 0h60v40H0z"/></clipPath></defs></svg>
